# xmcd
#
# Track frame offsets: 
#        150
#        18173
#        34088
#        50390
#        69422
#        88055
#        109011
#        122404
#        134080
#        147501
#        161876
#
# Disc length: 2385 seconds
#
# Revision: 0
# Processed by: cddbd v1.5.2PL0 Copyright (c) Steve Scherf et al.
# Submitted via: ExactAudioCopyFreeDBPlugin 1.0
#
DISCID=98094f0b
DTITLE=The Greyhounds - Accumulator
DYEAR=2014
DGENRE=R&B
TTITLE0=What's On Your Mind
TTITLE1=Yeah Yeah Yeah
TTITLE2=I Remember
TTITLE3=Soul Navigator
TTITLE4=Yours to Steal
TTITLE5=You're Gone
TTITLE6=All Over But The Shoutin'
TTITLE7=Lone Rider
TTITLE8=Get Back
TTITLE9=Amazing
TTITLE10=Troubled Days
EXTD=
EXTT0=
EXTT1=
EXTT2=
EXTT3=
EXTT4=
EXTT5=
EXTT6=
EXTT7=
EXTT8=
EXTT9=
EXTT10=
PLAYORDER=
